<?xml version="1.0" encoding="utf-8"?>
<svg version="1.1" xmlns:xlink="http://www.w3.org/1999/xlink" width="300px" height="170px" xmlns="http://www.w3.org/2000/svg">
  <g transform="matrix(1 0 0 1 -316 -257 )">
    <path d="M 316 257  L 616 257  L 616 427  L 316 427  L 316 257  " fill-rule="nonzero" fill="#cccccc" stroke="none" />
    <path d="M 328 269  L 604 269  L 604 415  L 328 415  L 328 269  " fill-rule="nonzero" fill="#ffffff" stroke="none" />
    <path d="M 484.75 308  C 477.61 308  472 302.39  472 295.25  C 472 288.11  477.61 282.5  484.75 282.5  C 491.89 282.5  497.5 288.11  497.5 295.25  C 497.5 302.39  491.89 308  484.75 308  " fill-rule="nonzero" fill="#cccccc" stroke="none" />
    <path d="M 333 411  L 333 335.65  L 399.75 301.4  L 493.2 364.42  L 546.6 321.95  L 600 364.42  L 600 411  L 333 411  " fill-rule="nonzero" fill="#169bd5" stroke="none" />
  </g>
</svg>