<?xml version="1.0" encoding="utf-8"?>
<svg version="1.1" xmlns:xlink="http://www.w3.org/1999/xlink" width="249px" height="149px" xmlns="http://www.w3.org/2000/svg">
  <g transform="matrix(1 0 0 1 -571 -264 )">
    <path d="M 571 264  L 820 264  L 820 413  L 571 413  L 571 264  " fill-rule="nonzero" fill="#cccccc" stroke="none" />
    <path d="M 581 274  L 810 274  L 810 403  L 581 403  L 581 274  " fill-rule="nonzero" fill="#ffffff" stroke="none" />
    <path d="M 711.655 308.7  C 705.397 308.7  700.48 303.783  700.48 297.525  C 700.48 291.267  705.397 286.35  711.655 286.35  C 717.913 286.35  722.83 291.267  722.83 297.525  C 722.83 303.783  717.913 308.7  711.655 308.7  " fill-rule="nonzero" fill="#cccccc" stroke="none" />
    <path d="M 585 400  L 585 332.9  L 640.5 302.4  L 718.2 356.197590361446  L 762.6 320.7  L 807 356.197590361446  L 807 400  L 585 400  " fill-rule="nonzero" fill="#169bd5" stroke="none" />
  </g>
</svg>